<svg width="52" height="80" viewBox="0 0 52 80" fill="none" xmlns="http://www.w3.org/2000/svg">
<g id="Group 2">
<path id="Vector" d="M25.9479 78.6506C12.1694 78.6506 1 67.7033 1 54.1987V25.8869C1 12.3823 12.1694 1.43506 25.9479 1.43506C39.7265 1.43506 50.8959 12.3823 50.8959 25.8869V54.1987C50.8959 67.7033 39.7265 78.6506 25.9479 78.6506Z" stroke="black" stroke-width="2" stroke-miterlimit="10"/>
<path id="Vector_2" d="M32.8818 45.2243C33.2876 45.1161 33.742 45.0557 34.2624 45.0557C38.4199 45.0557 38.4199 48.99 42.5789 48.99C46.7364 48.99 46.7364 45.0557 50.8953 45.0557" stroke="black" stroke-width="2" stroke-miterlimit="10"/>
<path id="Vector_3" d="M1 45.0542C5.15751 45.0542 5.15751 48.9885 9.31503 48.9885C13.4725 48.9885 13.4725 45.0542 17.6301 45.0542C18.0831 45.0542 18.4874 45.1006 18.8515 45.1835" stroke="black" stroke-width="2" stroke-miterlimit="10"/>
<path id="Vector_4" d="M30.6025 35.0483C31.5 34.2418 32.5136 33.5435 34.2626 33.5435C38.4201 33.5435 38.4201 37.4778 42.5791 37.4778C46.7366 37.4778 46.7366 33.5435 50.8955 33.5435" stroke="black" stroke-width="2" stroke-miterlimit="10"/>
<path id="Vector_5" d="M1 33.5435C5.15751 33.5435 5.15751 37.4778 9.31503 37.4778C13.4725 37.4778 13.4725 33.5435 17.6301 33.5435C19.3819 33.5435 20.3955 34.2418 21.293 35.0497" stroke="black" stroke-width="2" stroke-miterlimit="10"/>
<path id="Vector_6" d="M32.1016 39.7541C32.6879 39.4759 33.3832 39.2988 34.2635 39.2988C38.421 39.2988 38.421 43.2332 42.5799 43.2332C46.7374 43.2332 46.7374 39.2988 50.8964 39.2988" stroke="black" stroke-width="2" stroke-miterlimit="10"/>
<path id="Vector_7" d="M1 39.2988C5.15751 39.2988 5.15751 43.2332 9.31503 43.2332C13.4725 43.2332 13.4725 39.2988 17.6301 39.2988C18.5117 39.2988 19.207 39.4759 19.7934 39.7541" stroke="black" stroke-width="2" stroke-miterlimit="10"/>
<path id="Vector_8" d="M33.2363 49.0629C33.2363 55.6458 31.5804 61.8494 28.6515 67.2943H23.2439C20.3165 61.8494 18.6592 55.6458 18.6592 49.0629C18.6592 41.0748 21.0992 33.6445 25.2883 27.4507C25.6008 26.9884 26.2947 26.9884 26.6072 27.4507C30.7977 33.6445 33.2363 41.0748 33.2363 49.0629Z" stroke="black" stroke-width="2" stroke-miterlimit="10"/>
<path id="Vector_9" d="M32.752 55.1807C38.9165 55.9155 44.77 57.6396 50.1404 60.1885" stroke="black" stroke-width="2" stroke-miterlimit="10"/>
<path id="Vector_10" d="M1.76367 60.2184C7.13117 57.6639 12.9832 55.9314 19.1464 55.1895" stroke="black" stroke-width="2" stroke-miterlimit="10"/>
<path id="Vector_11" d="M28.7053 30.93C30.4515 29.7806 31.3045 27.7882 34.2635 27.7882C36.6447 27.7882 37.6612 29.0781 38.8769 30.1797C38.8769 30.1797 39.5951 27.3877 39.5951 25.8871C39.5951 18.5003 33.485 12.5117 25.9484 12.5117C18.4119 12.5117 12.3018 18.5003 12.3018 25.8871C12.3018 27.3891 12.5541 28.8322 13.02 30.1797C13.02 30.1797 15.2522 27.7882 17.632 27.7882C20.5924 27.7882 21.4454 29.782 23.1901 30.9314" stroke="black" stroke-width="2" stroke-miterlimit="10"/>
<path id="Vector_12" d="M31.5206 67.2944H28.6533" stroke="black" stroke-width="2" stroke-miterlimit="10" stroke-linecap="round"/>
<path id="Vector_13" d="M23.2437 67.2944H20.3779" stroke="black" stroke-width="2" stroke-miterlimit="10" stroke-linecap="round"/>
<path id="Vector_14" d="M18.9248 53.5946L25.9596 46.6982L32.9829 53.5819" stroke="black" stroke-width="2" stroke-miterlimit="10"/>
<path id="Vector_15" d="M25.959 46.6982V67.2945" stroke="black" stroke-width="2" stroke-miterlimit="10"/>
</g>
</svg>
